<svg width="1400" height="520" viewBox="0 0 1400 520" fill="none" xmlns="http://www.w3.org/2000/svg">
<defs><linearGradient id="bg" x1="0" y1="0" x2="1400" y2="520"><stop stop-color="#090D1A"/><stop offset=".52" stop-color="#111A35"/><stop offset="1" stop-color="#24133F"/></linearGradient><linearGradient id="glow" x1="220" y1="70" x2="1120" y2="430"><stop stop-color="#7C5CFF"/><stop offset=".5" stop-color="#34D5FF"/><stop offset="1" stop-color="#FF6AC2"/></linearGradient></defs>
<rect width="1400" height="520" rx="28" fill="url(#bg)"/><circle cx="210" cy="80" r="150" fill="#7657FF" opacity=".18"/><circle cx="1190" cy="420" r="180" fill="#FF62C7" opacity=".14"/><path d="M-40 410C210 220 310 500 570 304C810 124 941 321 1440 94" stroke="url(#glow)" stroke-opacity=".3" stroke-width="2"/><g opacity=".22" stroke="#9EA9D7"><path d="M64 80H1336M64 146H1336M64 212H1336M64 278H1336M64 344H1336M64 410H1336"/><path d="M110 48V466M250 48V466M390 48V466M530 48V466M670 48V466M810 48V466M950 48V466M1090 48V466M1230 48V466"/></g>
<rect x="94" y="88" width="1212" height="344" rx="22" fill="#0B1022" fill-opacity=".78" stroke="#7180C7" stroke-opacity=".4"/><rect x="94" y="88" width="1212" height="48" rx="22" fill="#171E3D"/><circle cx="128" cy="112" r="6" fill="#FF6A8B"/><circle cx="150" cy="112" r="6" fill="#FFD166"/><circle cx="172" cy="112" r="6" fill="#5CE1A8"/><text x="204" y="118" fill="#AAB6E8" font-family="ui-monospace,monospace" font-size="15">lantu · session journal · runtime online</text><text x="154" y="232" fill="white" font-family="Inter,sans-serif" font-weight="800" font-size="92">LANTU</text><text x="160" y="276" fill="#AFC4FF" font-family="Inter,sans-serif" font-size="22" letter-spacing="3">RECOVERABLE · OBSERVABLE · CONTROLLED</text><path d="M160 328H550" stroke="url(#glow)" stroke-width="4" stroke-linecap="round"/><text x="160" y="370" fill="#DCE3FF" font-family="ui-monospace,monospace" font-size="17">agent_loop  →  tools  →  context  →  journal</text><g transform="translate(1010 178)"><circle cx="92" cy="92" r="88" fill="#141D42" stroke="url(#glow)" stroke-width="3"/><path d="M92 28L108 76L158 92L108 108L92 158L76 108L26 92L76 76L92 28Z" fill="url(#glow)"/><circle cx="92" cy="92" r="18" fill="#0B1022" stroke="#E5E9FF" stroke-width="3"/></g><text x="1110" y="486" fill="#8D9ACD" font-family="ui-monospace,monospace" font-size="13">terminal ai engineering</text></svg>
